<svg xmlns="http://www.w3.org/2000/svg" width="24" height="24"><path d="M9 4v2h2v10c0 .716-.38 1.374-1 1.732-.62.358-1.38.358-2 0-.62-.358-1-1.016-1-1.732v-1.246a2.241 2.241 0 0 0 1.25-2.004C8.25 11.505 7.245 9 6 9s-2.25 2.505-2.25 3.75c0 .88.512 1.634 1.25 2.004V16a4.002 4.002 0 0 0 6 3.465 3.983 3.983 0 0 0 1-.832c.284.324.616.61 1 .832A4.002 4.002 0 0 0 19 16v-1.246a2.241 2.241 0 0 0 1.25-2.004C20.25 11.505 19.245 9 18 9s-2.25 2.505-2.25 3.75c0 .88.512 1.634 1.25 2.004V16c0 .716-.38 1.374-1 1.732-.62.358-1.38.358-2 0-.62-.358-1-1.016-1-1.732V6h2V4H9zm-3 8.375a.75.75 0 1 1 0 1.5.75.75 0 0 1 0-1.5zm12 0a.75.75 0 1 1 0 1.5.75.75 0 0 1 0-1.5z"/></svg>