<svg height="24" width="24" xmlns="http://www.w3.org/2000/svg"><path d="M9.38 8.38l2.12.96 2.12-.96-.96 2.12.96 2.12-2.12-.96-2.12.96.96-2.12-.96-2.12M16.5 2.5l1.09 2.91L20.5 6.5l-2.91 1.09-1.09 2.91-1.09-2.91L12.5 6.5l2.91-1.09L16.5 2.5M6 19h1v-1a1 1 0 0 1 1-1h.26a7.47 7.47 0 0 1-3.76-6.5A7.5 7.5 0 0 1 12 3a7.5 7.5 0 0 1 2.96.61l-.37.98-1.42.53A5.66 5.66 0 0 0 12 5a5.5 5.5 0 0 0-5.5 5.5A5.5 5.5 0 0 0 12 16c2.91 0 5.3-2.27 5.5-5.13l.91-2.46.71-.27A7.47 7.47 0 0 1 15.74 17H16a1 1 0 0 1 1 1v1h1a2 2 0 0 1 2 2v1H4v-1a2 2 0 0 1 2-2z"/></svg>