<svg height="24" width="24" xmlns="http://www.w3.org/2000/svg"><path d="M20 8.5a2.5 2.5 0 0 1-2.5 2.5c-1.08 0-2-.69-2.34-1.64A2.5 2.5 0 0 1 12 9.5a2.5 2.5 0 0 1-3.16-.14A2.49 2.49 0 0 1 6.5 11 2.5 2.5 0 0 1 4 8.5a2.5 2.5 0 0 1 2.1-2.46c-.06-.17-.1-.35-.1-.54A1.5 1.5 0 0 1 7.5 4c.2 0 .39.04.56.11a1.5 1.5 0 0 1 2.12-.94A2.04 2.04 0 0 1 12 2c.81 0 1.5.5 1.82 1.17a1.5 1.5 0 0 1 2.12.94c.17-.07.36-.11.56-.11A1.5 1.5 0 0 1 18 5.5c0 .19-.04.37-.1.54A2.5 2.5 0 0 1 20 8.5M10 12a1 1 0 0 0-1 1 1 1 0 0 0 1 1 1 1 0 0 0 1-1 1 1 0 0 0-1-1m4 0a1 1 0 0 0-1 1 1 1 0 0 0 1 1 1 1 0 0 0 1-1 1 1 0 0 0-1-1m6.23-1.34A3.47 3.47 0 0 1 17.5 12c-.45 0-.88-.1-1.29-.27-.01 2.55-.38 5.63-1.76 7.22-.52.59-1.15.91-1.95 1.01V18h-1v1.96c-.8-.1-1.43-.41-1.95-1.01-1.39-1.6-1.76-4.66-1.77-7.21-.4.16-.83.26-1.28.26a3.47 3.47 0 0 1-2.73-1.34A7.89 7.89 0 0 1 2 12s1 2 3 2c.36 0 .64-.04.88-.09C6.22 17.73 7.58 22 12 22s5.78-4.27 6.12-8.09c.24.05.52.09.88.09 2 0 3-2 3-2s-.88-.45-1.77-1.34z"/></svg>