<svg xmlns="http://www.w3.org/2000/svg" width="24" height="24"><path d="M6.5 2C4 2 2 4 2 6.5c0 1.6.8 2.9 2 3.7v1.3c0 .3.2.5.5.5h1.9c.6-1.9 2.3-3.4 4.3-3.9.2-.5.3-1 .3-1.6C11 4 9 2 6.5 2zm11 0C15 2 13 4 13 6.5c0 .6.1 1.1.3 1.6 2 .5 3.7 1.9 4.3 3.9h1.9c.3 0 .5-.2.5-.5v-1.3c1.2-.8 2-2.2 2-3.7C22 4 20 2 17.5 2zM12 9c-2.8 0-5 2.2-5 5 0 1.6.8 3.1 2 4v1.5c0 .3.2.5.5.5h5c.3 0 .5-.2.5-.5V18c1.2-.9 2-2.3 2-4 0-2.8-2.2-5-5-5zm-7 4v.5c0 .3.2.5.5.5H6c0-.3 0-.7.1-1H5zm12.9 0c.1.3.1.7.1 1h.5c.3 0 .5-.2.5-.5V13h-1.1zM10 21v.5c0 .3.2.5.5.5h3c.3 0 .5-.2.5-.5V21h-4z"/></svg>