<svg xmlns="http://www.w3.org/2000/svg" baseProfile="full" width="24" height="24"><path d="M7.25 3c.653 0 1.257.209 1.75.563V3a2 2 0 0 1 4 0v.573A3 3 0 1 1 15 9h-2v1h1.24l.479.125 4.594 2.297c.812.312 1.218.922 1.218 1.828l-.023.14-.024.141-.984 6.75c-.063.469-.281.875-.656 1.219-.375.344-.797.516-1.266.516H9.984c-.53 0-1-.203-1.406-.61l-6.562-6.562 1.03-1.078c.282-.282.642-.422 1.079-.422h.328L9 15.328V9H7v-.01A3 3 0 0 1 7.25 3zM9 6a1.75 1.75 0 1 0-2 1.732v.018h2V6zm6 1.75v-.007a1.75 1.75 0 1 0-2-1.733v1.74h2z"/></svg>