<svg height="24" width="24" xmlns="http://www.w3.org/2000/svg"><path d="M9 8a2 2 0 0 1 2 2c0 .36-.1.71-.27 1-.34-.6-.99-1-1.73-1s-1.39.4-1.73 1c-.17-.29-.27-.64-.27-1a2 2 0 0 1 2-2m6 0a2 2 0 0 1 2 2c0 .36-.1.71-.27 1-.34-.6-.99-1-1.73-1s-1.39.4-1.73 1c-.17-.29-.27-.64-.27-1a2 2 0 0 1 2-2m-3 12a8 8 0 0 0 8-8 8 8 0 0 0-8-8 8 8 0 0 0-8 8 8 8 0 0 0 8 8m0-18a10 10 0 0 1 10 10 10 10 0 0 1-10 10C6.47 22 2 17.5 2 12A10 10 0 0 1 12 2M9 13h6a1 1 0 0 1 1 1 1 1 0 0 1-1 1c0 2-.9 3-2 3s-2-1-2-3H9a1 1 0 0 1-1-1 1 1 0 0 1 1-1z"/></svg>