<svg height="24" width="24" xmlns="http://www.w3.org/2000/svg"><path d="M4.93 3.93a9.97 9.97 0 0 0 0 14.14l1.41-1.41A7.94 7.94 0 0 1 4 11c0-2.21.89-4.22 2.34-5.66L4.93 3.93m14.14 0l-1.41 1.41A7.96 7.96 0 0 1 20 11c0 2.22-.89 4.22-2.34 5.66l1.41 1.41a9.97 9.97 0 0 0 0-14.14M7.76 6.76a5.98 5.98 0 0 0 0 8.48l1.41-1.41a3.99 3.99 0 0 1 0-5.66L7.76 6.76m8.48 0l-1.41 1.41a3.99 3.99 0 0 1 0 5.66l1.41 1.41a5.98 5.98 0 0 0 0-8.48M12 9a2 2 0 0 0-2 2 2 2 0 0 0 2 2 2 2 0 0 0 2-2 2 2 0 0 0-2-2m-1 6v4h-1a1 1 0 0 0-1 1H2v2h7a1 1 0 0 0 1 1h4a1 1 0 0 0 1-1h7v-2h-7a1 1 0 0 0-1-1h-1v-4h-2z"/></svg>