<svg xmlns="http://www.w3.org/2000/svg" height="24" width="24"><path d="M12 3C7.46 3 3.34 4.78.3 7.67c-.191.18-.3.43-.3.71 0 .28.109.53.289.71l2.48 2.51c.18.1.43.3.71.3.27 0 .52-.2.7-.3.79-.8 1.69-1.4 2.66-1.87.33-.16.56-.5.56-.9v-3.1c1.45-.48 3-.73 4.6-.73s3.1.25 4.6.72v3.1c0 .39.2.74.6.9.9.48 1.8 1.08 2.6 1.88.2.1.5.2.7.2.3 0 .6-.1.7-.2l2.5-2.52c.2-.18.3-.43.3-.71s-.1-.52-.3-.7c-3-2.89-7.2-4.67-11.7-4.67zM9 7v3s-6 5-6 8v4h18v-4c0-3-6-8-6-8V7h-2v2h-2V7H9zm3 5c2.2 0 4 1.8 4 4s-1.8 4-4 4c-2.21 0-4-1.8-4-4s1.79-4 4-4zm0 1.5c-1.4 0-2.5 1.1-2.5 2.5s1.1 2.5 2.5 2.5 2.5-1.1 2.5-2.5-1.1-2.5-2.5-2.5z"/></svg>