<svg xmlns="http://www.w3.org/2000/svg" width="24" height="24"><path d="M12 6a3 3 0 1 0 0 6 3 3 0 0 0 0-6zM6 8.166a2.5 2.5 0 0 0 0 5c.879 0 1.648-.455 2.094-1.14C7.424 11.183 7 10.148 7 9c0-.203.017-.402.041-.6A2.479 2.479 0 0 0 6 8.166zm12 0c-.373 0-.723.088-1.041.234.024.197.041.397.041.6 0 1.149-.423 2.184-1.094 3.025A2.492 2.492 0 0 0 18 13.166a2.5 2.5 0 0 0 0-5zM12 14c-2 0-6 1-6 3v2h12v-2c0-2-4-3-6-3zm-7.326.967C2.997 15.257 1 16.042 1 17.334V19h3v-2c0-.78.288-1.468.674-2.033zm14.652 0c.386.565.674 1.254.674 2.033v2h3v-1.666c0-1.292-1.997-2.077-3.674-2.367z"/></svg>