<svg width="18" height="18" xmlns="http://www.w3.org/2000/svg" fill-rule="evenodd" clip-rule="evenodd" stroke-linejoin="round" stroke-miterlimit="1.414"><path d="M8.25 10.719a1.876 1.876 0 1 1 1.5 0v6.531h-1.5v-6.531zM11.993 9.2c.441.139.873.327 1.29.568a6.395 6.395 0 0 1 2.822 3.361 6.396 6.396 0 0 1-4.322-.763 6.484 6.484 0 0 1-1.153-.848A2.998 2.998 0 0 0 11.993 9.2zm-5.989-.041a3 3 0 0 0 1.321 2.33 6.46 6.46 0 0 1-1.155.85 6.396 6.396 0 0 1-4.322.763A6.396 6.396 0 0 1 4.67 9.74a6.494 6.494 0 0 1 1.334-.581zm1.654-2.842A6.478 6.478 0 0 1 7.5 4.894c0-1.571.564-3.011 1.5-4.125a6.392 6.392 0 0 1 1.5 4.125c0 .489-.055.965-.158 1.423A2.98 2.98 0 0 0 9 6a2.98 2.98 0 0 0-1.342.317z"/></svg>