<svg xmlns="http://www.w3.org/2000/svg" width="24" height="24"><path style="line-height:normal;text-indent:0;text-align:start;text-decoration-line:none;text-decoration-style:solid;text-decoration-color:#000;text-transform:none;block-progression:tb;isolation:auto;mix-blend-mode:normal" d="M10.5 3v2.197c-.716.178-1.377.468-1.928.881C7.653 6.768 7 7.811 7 9c0 1.333.805 2.377 1.746 2.926.941.549 2.012.795 3.012 1.045 1 .25 1.93.504 2.488.83.56.326.754.532.754 1.199 0 .468-.243.926-.771 1.322C13.7 16.72 12.902 17 12 17c-.902 0-1.7-.281-2.229-.678C9.243 15.926 9 15.468 9 15H7c0 1.189.653 2.232 1.572 2.922.551.413 1.212.703 1.928.88V21h3v-2.197c.716-.178 1.377-.468 1.928-.881C16.347 17.232 17 16.189 17 15c0-1.333-.805-2.377-1.746-2.926-.941-.549-2.012-.795-3.012-1.045-1-.25-1.93-.504-2.488-.83C9.194 9.873 9 9.667 9 9c0-.468.243-.926.771-1.322C10.3 7.28 11.098 7 12 7c.902 0 1.7.281 2.229.678.528.396.771.854.771 1.322h2c0-1.189-.653-2.232-1.572-2.922-.551-.413-1.212-.703-1.928-.88V3h-3z" color="#000" font-weight="400" font-family="sans-serif" white-space="normal" overflow="visible"/></svg>