<svg xmlns="http://www.w3.org/2000/svg" viewBox="0 0 24 24" fill-rule="evenodd" clip-rule="evenodd" stroke-linejoin="round" stroke-miterlimit="1.414"><path d="M21.004 2.996l-8.192 1.121 7.07 7.07 1.122-8.19zm-8.742 4.5l-7.78 7.777 1.313 1.315a3.04 3.04 0 0 0-.715.639c-.18.222-.32.467-.437.728l-.043.104c-.066.18-.13.363-.213.537-.05.104-.104.21-.18.297a.232.232 0 0 1-.05.043c-.074.04-.172.043-.253.05-.076.005-.674.011-.896.01l-.008 2c.633.002 1.3.043 1.898-.203a2.065 2.065 0 0 0 .63-.398 2.54 2.54 0 0 0 .398-.463c.163-.243.287-.508.398-.778.054-.136.101-.277.156-.412.041-.09.09-.177.153-.254.168-.207.406-.331.66-.404l1.434 1.434 7.777-7.78-4.242-4.242z"/></svg>