<svg xmlns="http://www.w3.org/2000/svg" width="24" height="24"><path d="M12 2A10 10 0 0 0 2 12a10 10 0 0 0 10 10 10 10 0 0 0 10-10c0-1.16-.21-2.31-.61-3.39l-1.6 1.6c.14.59.21 1.19.21 1.79a8 8 0 0 1-8 8 8 8 0 0 1-8-8 8 8 0 0 1 8-8c.6 0 1.2.07 1.79.21L15.4 2.6A10.1 10.1 0 0 0 12 2m7 0l-4 4v1.5l-2.55 2.55C12.3 10 12.15 10 12 10a2 2 0 0 0-2 2 2 2 0 0 0 2 2 2 2 0 0 0 2-2c0-.15 0-.3-.05-.45L16.5 9H18l4-4h-3V2m-7 4a6 6 0 0 0-6 6 6 6 0 0 0 6 6 6 6 0 0 0 6-6h-2a4 4 0 0 1-4 4 4 4 0 0 1-4-4 4 4 0 0 1 4-4V6z"/></svg>