<svg xmlns="http://www.w3.org/2000/svg" width="24" height="24"><path d="M19.79 15.408a8.527 8.527 0 0 0-.003-6.822l-2.732 1.242a5.518 5.518 0 0 1 .001 4.337l2.733 1.243zM15.416 4.215a8.527 8.527 0 0 0-6.826-.004l1.241 2.73a5.518 5.518 0 0 1 4.344.005l1.241-2.731zM4.214 8.584a8.527 8.527 0 0 0 0 6.832l2.733-1.242a5.518 5.518 0 0 1-.002-4.349l-2.73-1.241zm4.38 11.206a8.527 8.527 0 0 0 6.828-.007L14.18 17.05a5.518 5.518 0 0 1-4.343.007L8.593 19.79zm3.405-17.792c5.522 0 10 4.477 10 10s-4.478 10-10 10c-5.523 0-10-4.477-10-10s4.477-10 10-10zM12 8a4 4 0 1 0 0 8 4 4 0 0 0 0-8z"/></svg>