<svg xmlns="http://www.w3.org/2000/svg" width="24" height="24"><path d="M12 2c-2.74 0-5.16.64-6.98 1.92A6.82 6.82 0 0 0 2 9.5c0 1.72.8 3.26 2 4.48V22h16v-8.02a6.4 6.4 0 0 0 2-4.48c0-2.29-1.19-4.3-3.02-5.58C17.16 2.64 14.74 2 12 2zm0 3c2.26 0 4.1.56 5.27 1.38C18.44 7.2 19 8.18 19 9.5a3.5 3.5 0 0 1-1.4 2.8l-.6.45V19H7v-6.24l-.59-.45A3.33 3.33 0 0 1 5 9.5c0-1.31.56-2.3 1.73-3.12A9.35 9.35 0 0 1 12 5z" color="#000" font-family="sans-serif" font-weight="400" overflow="visible" white-space="normal" style="line-height:normal;font-variant-ligatures:normal;font-variant-position:normal;font-variant-caps:normal;font-variant-numeric:normal;font-variant-alternates:normal;font-feature-settings:normal;text-indent:0;text-align:start;text-decoration-line:none;text-decoration-style:solid;text-decoration-color:#000;text-transform:none;text-orientation:mixed;shape-padding:0;isolation:auto;mix-blend-mode:normal"/></svg>