<svg xmlns="http://www.w3.org/2000/svg" viewBox="0 0 24 24"><path d="M19.6 19.6c-.3.2-.7 0-.8-.3l-1.4-3-1.5 1.2c-.1.1-.2.2-.4.2-.3 0-.6-.3-.6-.6V7.7c0-.3.3-.6.6-.6.2 0 .3.1.4.2l7.1 6c.2.2.3.6.1.8-.1.1-.2.2-.4.2l-2 .4 1.4 2.9c.2.3 0 .7-.3.8l-2.2 1.2zM14.8 6l-1 1c-.2-.2-.6-.6-1.2-.8-.6-.2-1-.1-1.3 0-.2.1-.8.3-1 .9-.1.6.3 1.2.7 1.7.1.1.2.3.3.4.7.8 1.6 1.8 2 3.1.1.4.2.8.2 1.2 0 .3-.1.6-.2.8-.1.2-.3.5-.7.7-.5.3-.9.3-1.2.3-.3 0-.6-.1-1-.2-1-.4-1.6-.8-1.7-.9-1.1-.8-2.6-2-3.5-1.8-1.2.3-1.1 1-1 1.6 2.9-.2 4.5 1.8 4.8 3 .3 1.2-.5 2.5-1.8 2.7-1.2.3-3.3-.2-4.4-3.6l-1.8.2-.3-1.8 1.8-.4c-.2-1.2.1-3.2 2.2-3.7 1.6-.4 3.3.7 4 1.2.5.4 1.1.9 1.3 1 .2.1.9.7 1.2.6.3 0 .8-.3.4-1s-.7-.9-1.9-2.2c-.6-.7-1.2-1.2-1.3-2.1-.1-.3-.1-.9.1-1.5.2-.8.8-1.2 1-1.4 1.4-1.1 3.2-.5 3.3-.5 1.2.4 1.8 1.2 2 1.5zM7.1 17.8c.2 0 .5-.3.4-.6-.1-.4-.9-1.4-2.5-1.5.6 1.9 1.6 2.2 2.1 2.1z"/></svg>