<svg xmlns="http://www.w3.org/2000/svg" width="24" height="24"><path style="isolation:auto;mix-blend-mode:normal" d="M12.3 1.996a1.75 1.75 0 0 0-1.529 2.484l.284.633a.25.25 0 0 1 .01.024v.004a.25.25 0 0 1-.426.236.25.25 0 0 1-.006-.008l-.428-.547a1.75 1.75 0 0 0-1.357-.691 1.75 1.75 0 0 0-1.4 2.846l.425.544.002.002a.25.25 0 0 1-.35.35l-.546-.426a1.75 1.75 0 0 0-1.137-.386 1.75 1.75 0 0 0-1.02 3.144l.57.445a.25.25 0 0 1-.277.403l-.002.002-.63-.282a1.75 1.75 0 0 0-.678-.16 1.75 1.75 0 0 0-.746 3.358l11.39 5.072 4.594-4.594-5.072-11.392a1.75 1.75 0 0 0-1.67-1.06zm.835 4.104a1 1 0 0 1 .953.605l3.049 6.85-3.948-3.948-.93-2.087a1 1 0 0 1 .876-1.42zm-3.29 2.746a1 1 0 0 1 .717.302l4.81 4.809a1 1 0 1 1-1.415 1.414l-4.809-4.809a1 1 0 0 1 .698-1.716zM7.132 12.17a1 1 0 0 1 .387.092l2.109.94 3.943 3.943-6.865-3.057c-1.013-.437-.676-1.95.426-1.918zm13.15 3.87L16.04 20.28l.85.85a3.002 3.002 0 0 0 5.01-1.354 3.002 3.002 0 0 0-.768-2.888l-.85-.85z" color="#000" overflow="visible"/></svg>