<svg xmlns="http://www.w3.org/2000/svg" width="24" height="24"><path d="M12 2c-2.5 0-4.75.9-6.5 2.4.478.41.91.87 1.305 1.362l1.088-.627 1 1.73-1.002.578A9.927 9.927 0 0 1 8.945 11H10v2H8.945a9.927 9.927 0 0 1-1.054 3.557l1.002.578-1 1.73-1.088-.627c-.394.493-.827.952-1.305 1.362 1.75 1.5 4 2.4 6.5 2.4s4.75-.9 6.5-2.4c-.48-.41-.912-.87-1.307-1.364l-1.088.63-1-1.731 1.004-.58A9.927 9.927 0 0 1 15.055 13h-1.057v-2h1.057a9.927 9.927 0 0 1 1.054-3.555l-1.004-.58 1-1.73 1.088.629c.395-.494.828-.954 1.307-1.364C16.75 2.9 14.5 2 12 2zM4.12 5.85A9.936 9.936 0 0 0 2 12c0 2.32.79 4.45 2.12 6.15.335-.28.64-.596.927-.927l-.62-.358 1-1.73.733.424c.393-.79.66-1.649.774-2.559H6v-2h.934a7.934 7.934 0 0 0-.772-2.557l-.732.422-1-1.73.617-.358a8.079 8.079 0 0 0-.928-.927zm15.76 0a8.078 8.078 0 0 0-.927.93l.615.355-1 1.73-.73-.422A7.934 7.934 0 0 0 17.066 11h.932v2h-.932c.114.91.38 1.768.772 2.557l.732-.422 1 1.73-.617.358c.286.33.592.647.928.927A9.936 9.936 0 0 0 22 12c0-2.32-.79-4.45-2.12-6.15z"/></svg>