<svg xmlns="http://www.w3.org/2000/svg" height="24" width="24"><path style="line-height:normal;text-indent:0;text-align:start;text-decoration-line:none;text-decoration-style:solid;text-decoration-color:#000;text-transform:none;block-progression:tb;isolation:auto;mix-blend-mode:normal" d="M19.984 2a1 1 0 0 0-.691.293l-9.5 9.5a1 1 0 0 0-.107.125l-2.452 3.434L4 18.586l-.293-.293a1 1 0 0 0-.717-.303 1 1 0 0 0-.697 1.717l2 2a1 1 0 1 0 1.414-1.414L5.414 20l3.23-3.23 3.438-2.456a1 1 0 0 0 .125-.107l9.5-9.5a1 1 0 0 0 0-1.414l-1-1A1 1 0 0 0 19.984 2zM18.5 13a2.5 2.5 0 0 0-2.5 2.5 2.5 2.5 0 0 0 2.5 2.5 2.5 2.5 0 0 0 2.5-2.5 2.5 2.5 0 0 0-2.5-2.5z" color="#000" font-weight="400" font-family="sans-serif" white-space="normal" overflow="visible"/></svg>