<svg xmlns="http://www.w3.org/2000/svg" width="24" height="24"><path d="M5 3v2.5c1.82-.01 2.89.39 4 1.5l1 1-3.25 3.25c.31.12.56.27.77.39.37.23.59.36 1.15.36.56 0 .78-.13 1.15-.36.46-.27 1.08-.64 2.19-.64 1.11 0 1.73.37 2.18.64.37.22.6.36 1.15.36.55 0 .78-.13 1.15-.36.12-.07.26-.15.41-.23L10.48 5C8.93 3.45 7.5 2.99 5 3zm11.5 0A2.5 2.5 0 0 0 14 5.5 2.5 2.5 0 0 0 16.5 8 2.5 2.5 0 0 0 19 5.5 2.5 2.5 0 0 0 16.5 3zM5.33 13.5c-1.11 0-1.73.37-2.18.64-.37.23-.59.36-1.15.36v2c1.11 0 1.73-.37 2.2-.64.37-.23.6-.36 1.15-.36.55 0 .78.14 1.15.36.45.27 1.07.64 2.18.64s1.73-.37 2.18-.64c.37-.23.59-.36 1.15-.36.55 0 .78.14 1.15.36.45.27 1.07.64 2.18.64s1.73-.37 2.18-.64c.37-.23.59-.36 1.15-.36.55 0 .78.14 1.15.36.447.268 1.064.633 2.16.638V14.5c-.55 0-.78-.14-1.15-.36-.45-.27-1.07-.64-2.18-.64s-1.73.37-2.18.64c-.37.23-.6.36-1.15.36-.55 0-.78-.14-1.15-.36-.45-.27-1.07-.64-2.18-.64s-1.73.37-2.18.64c-.37.23-.59.36-1.15.36-.55 0-.78-.14-1.15-.36-.45-.27-1.07-.64-2.18-.64zm16.65 2.998v.002H22l-.02-.002zM5.34 18c-1.11 0-1.73.37-2.19.64-.37.23-.59.36-1.15.36v2c1.11 0 1.73-.37 2.19-.64.37-.23.6-.36 1.15-.36.55 0 .78.13 1.15.36.45.27 1.07.64 2.18.64s1.73-.37 2.19-.64c.37-.23.59-.36 1.15-.36.55 0 .78.14 1.15.36.45.27 1.07.64 2.18.64s1.72-.37 2.18-.64c.37-.23.59-.36 1.15-.36.55 0 .78.14 1.15.36.45.27 1.07.64 2.18.64v-2c-.56 0-.78-.13-1.15-.36-.45-.27-1.07-.64-2.18-.64s-1.73.37-2.18.64c-.37.23-.6.36-1.15.36-.55 0-.78-.14-1.15-.36-.45-.27-1.07-.64-2.18-.64s-1.73.37-2.19.64c-.37.23-.59.36-1.15.36-.56 0-.78-.13-1.15-.36-.45-.27-1.07-.64-2.18-.64z"/></svg>