<svg viewBox="0 0 24 24" xmlns="http://www.w3.org/2000/svg" fill-rule="evenodd" clip-rule="evenodd" stroke-linejoin="round" stroke-miterlimit="1.414"><path d="M8.794 21.474a16.045 16.045 0 0 0 7.698-9.964c.683.028 1.351.112 2 .25a18.026 18.026 0 0 1-6.823 10.235 9.977 9.977 0 0 1-2.875-.521zm4.59.431a19.006 19.006 0 0 0 6.077-9.897 11.9 11.9 0 0 1 2.482 1.067 10.013 10.013 0 0 1-8.559 8.83zm-7.801-2.237a13.051 13.051 0 0 0 7.683-7.855c.708-.165 1.44-.267 2.19-.301a15.046 15.046 0 0 1-7.866 9.464 10.064 10.064 0 0 1-2.007-1.308zM2.651 8.445a19.004 19.004 0 0 0 5.285 8.846 11.956 11.956 0 0 1-3.174 1.606A9.965 9.965 0 0 1 2 12c0-1.252.23-2.45.651-3.555zM5.053 4.81a15.958 15.958 0 0 0 5.1 10.447c-.433.51-.907.983-1.417 1.414a17.976 17.976 0 0 1-5.395-9.673A10.022 10.022 0 0 1 5.053 4.81zm2.964-1.984a12.958 12.958 0 0 0 3.8 9.872c-.299.621-.65 1.212-1.047 1.768a14.96 14.96 0 0 1-4.762-10.47 9.978 9.978 0 0 1 2.009-1.17zM22 11.967a12.929 12.929 0 0 0-6-1.467 12.97 12.97 0 0 0-4.204.696A11.94 11.94 0 0 1 10.608 9.5 14.94 14.94 0 0 1 16 8.5c2.024 0 3.955.402 5.717 1.13.182.749.28 1.532.283 2.337zm-.664-3.554A15.956 15.956 0 0 0 16 7.5c-2.068 0-4.045.393-5.86 1.109a11.96 11.96 0 0 1-.698-1.875A17.92 17.92 0 0 1 16 5.5c1.357 0 2.678.15 3.95.436a9.955 9.955 0 0 1 1.386 2.477zM9.046 2.444A10.01 10.01 0 0 1 12 2a9.964 9.964 0 0 1 6.844 2.712A19.05 19.05 0 0 0 16 4.5c-2.391 0-4.68.443-6.789 1.251a12.098 12.098 0 0 1-.165-3.307z"/></svg>