<svg xmlns="http://www.w3.org/2000/svg" width="24" height="24"><path d="M14.62 8.35c-.42.28-1.75 1.04-1.95 1.19-.39.31-.75.29-1.14-.01-.2-.16-1.53-.92-1.95-1.19-.48-.31-.45-.7.08-.92a6.16 6.16 0 0 1 4.91.03c.49.21.51.6.05.9m7.22 7.28A19.1 19.1 0 0 0 18 9.97a4.31 4.31 0 0 1-1.06-1.88c-.1-.33-.17-.67-.24-1.01-.2-.88-.29-1.78-.7-2.61-.73-1.58-2-2.4-3.84-2.47-1.81.05-3.16.81-3.95 2.4a5.9 5.9 0 0 0-.46 1.34c-.17.76-.32 1.55-.5 2.32a3.38 3.38 0 0 1-.96 1.71 19.53 19.53 0 0 0-3.88 5.35c-.14.29-.28.58-.37.88-.19.66.29 1.12.99.96.44-.09.88-.18 1.3-.31.41-.15.57-.05.67.35a6.73 6.73 0 0 0 4.24 4.5c4.12 1.56 8.93-.66 9.97-4.58.07-.27.17-.37.47-.27.46.14.93.24 1.4.35.49.09.85-.16.92-.64.03-.26-.06-.49-.16-.73"/></svg>