<svg height="24" width="24" xmlns="http://www.w3.org/2000/svg"><path d="M18.05 21l-2.73-4.74c0-1.73-1.07-2.84-2.37-2.84-.9 0-1.68.5-2.08 1.24A2.36 2.36 0 1 1 12 19.11h3.3V21H6.79a.95.95 0 0 1-.67-1.62l.5-.5a3.7 3.7 0 0 1-.9-.62 1.42 1.42 0 1 1-1.3-2l.47.08v-1.97a4.73 4.73 0 0 1 4.74-4.74h.02c2.12.01 3.77.84 3.77-.47 0-.93.2-1.3.54-1.82a5.77 5.77 0 0 0-2.43-.55.94.94 0 0 1-.95-.95c0-.43.28-.79.67-.91l-.67-.04a.95.95 0 0 1-.95-.94c0-.53.43-.95.95-.95h.95c2.1 0 3.94 1.15 4.93 2.85l.28-.01c.71 0 1.37.23 1.91.61l.45.38c2.17 1.95 1.9 3.27 1.9 3.28a2.35 2.35 0 0 1-2.35 2.33l-.49-.05v.08c0 1.11-.48 2.1-1.23 2.8L20.24 21h-2.19m.11-13.26a.94.94 0 1 0 0 1.89c.52 0 .95-.42.95-.95a.95.95 0 0 0-.95-.94z"/></svg>