<svg xmlns="http://www.w3.org/2000/svg" width="24" height="24"><path d="M11.97 1.97A2 2 0 0 0 10 4v1a2 2 0 0 0 .02.3 7 7 0 0 0-.62.21l-.04.02a7 7 0 0 0-.33.15l-.29.13a7 7 0 0 0-.22.13l1.55 2.13h3.86l1.55-2.14a7 7 0 0 0-.22-.11c-.07-.05-.14-.07-.2-.1a7 7 0 0 0-.36-.17 7 7 0 0 0-.16-.06 7 7 0 0 0-.56-.2A2 2 0 0 0 14 5V4a2 2 0 0 0-2.03-2.03zM7.31 6.82a7 7 0 0 0-.18.18v-.01L7 7.12a7 7 0 0 0-.36.4l-.11.14a7 7 0 0 0-.43.6 3.5 3.5 0 0 0-2.2.33 3.5 3.5 0 0 0-1.88 2.69l3 .37A7 7 0 0 0 5 12a7 7 0 0 0 .04.65 7 7 0 0 0 .03.22l.04.32a7 7 0 0 0 .05.24l2.51-.81L8.81 9.1l.05-.16-1.55-2.13zm9.38 0l-1.55 2.13 1.2 3.67 2.51.82a7 7 0 0 0 .04-.25h.01l.04-.33a7 7 0 0 0 .02-.17 6.91 6.91 0 0 0 .03-.52A7 7 0 0 0 19 12l-.02-.35 3-.37a3.5 3.5 0 0 0-1.87-2.69 3.5 3.5 0 0 0-2.2-.33l-.05-.06a7 7 0 0 0-.28-.4l-.22-.29a7 7 0 0 0-.09-.1c-.12-.14-.25-.3-.39-.43V7a7 7 0 0 0-.19-.17zm-6.45 2.75l-1.1 3.36L12 15l2.85-2.07-1.09-3.36h-3.52zm-2.1 4.47l-2.52.82a7 7 0 0 0 .12.23h-.01l.07.13a7 7 0 0 0 .31.53l.1.16a7 7 0 0 0 .48.64 3.5 3.5 0 0 0-.32 2.2 3.5 3.5 0 0 0 2.02 2.59l1.23-2.76a7 7 0 0 0 1.63.38V16.3l-3.12-2.26zm7.73 0l-3.12 2.27v2.64a7 7 0 0 0 .25-.04v.01c.06 0 .12-.03.17-.04a7 7 0 0 0 .49-.1l.1-.02a7 7 0 0 0 .62-.2l1.23 2.78a3.5 3.5 0 0 0 2.03-2.58 3.5 3.5 0 0 0-.33-2.2l.08-.12a7 7 0 0 0 .31-.4l.18-.26a7 7 0 0 0 .34-.58 7 7 0 0 0 .04-.08l.02-.03a7 7 0 0 0 .1-.23l-2.51-.82z" color="#000" overflow="visible" style="isolation:auto;mix-blend-mode:normal"/></svg>