<svg height="24" width="24" xmlns="http://www.w3.org/2000/svg"><path d="M8.47 5.95c.48-.28 1-.51 1.53-.67V4c0-1.1.87-2 1.97-2.03C13.13 2 14 2.9 14 4v1.28c.53.17 1.05.39 1.53.67l-1.6 2.12h-3.86l-1.6-2.12M19 12a7 7 0 0 1-.14 1.4l-2.53-.78-1.19-3.66 1.6-2.11c.43.4.81.85 1.14 1.35.79-.07 1.55.05 2.23.39A3.57 3.57 0 0 1 22 11.28l-3 .36V12M5 12v-.35l-3-.37a3.57 3.57 0 0 1 1.89-2.69 3.54 3.54 0 0 1 2.19-.33c.33-.51.71-.98 1.16-1.39l1.62 2.08-1.19 3.67-2.53.78A7 7 0 0 1 5 12m5.24-2.43h3.52l1.09 3.36L12 15l-2.85-2.07 1.09-3.36m-2.11 4.48l3.12 2.26v2.65a6.68 6.68 0 0 1-1.63-.38l-1.23 2.76a3.49 3.49 0 0 1-1.7-4.78 6.84 6.84 0 0 1-1.1-1.74l2.54-.77m7.74 0l2.54.77a6.84 6.84 0 0 1-1.1 1.74c.34.68.46 1.44.33 2.2a3.52 3.52 0 0 1-2.03 2.58l-1.22-2.76c-.53.19-1.06.36-1.64.42v-2.69l3.12-2.26z"/></svg>