<svg xmlns="http://www.w3.org/2000/svg" width="24" height="24"><path d="M17.553 11.2c-.23-.3-.5-.56-.76-.82-.65-.6-1.4-1.03-2.03-1.66-1.46-1.46-1.78-3.87-.85-5.72-.9.23-1.75.75-2.45 1.32-2.54 2.08-3.54 5.75-2.34 8.9.04.1.08.2.08.33 0 .22-.15.42-.35.5-.22.1-.46.04-.64-.12a.83.83 0 0 1-.15-.17c-1.1-1.43-1.28-3.48-.53-5.12-1.64 1.36-2.51 3.66-2.39 5.83.04.5.1 1 .27 1.5.14.6.4 1.2.72 1.73 1.04 1.73 2.87 2.97 4.84 3.22 2.1.27 4.35-.12 5.96-1.6 1.8-1.66 2.45-4.3 1.5-6.6l-.13-.26c-.2-.45-.47-.87-.78-1.25zm-3.1 6.3c-.28.24-.73.5-1.08.6-1.1.38-2.2-.16-2.88-.82 1.2-.28 1.9-1.16 2.1-2.05.17-.8-.14-1.46-.27-2.23-.12-.74-.1-1.37.2-2.06.15.38.35.76.58 1.06.76 1 1.95 1.44 2.2 2.8.04.14.06.28.06.43.03.82-.32 1.72-.92 2.26z"/></svg>