<svg xmlns="http://www.w3.org/2000/svg" height="24" width="24"><path d="M12 2.016c-2.75 0-5.102.976-7.055 2.93C2.992 6.897 2.015 9.25 2.015 12s.977 5.102 2.93 7.055c1.953 1.953 4.305 2.93 7.055 2.93s5.102-.977 7.055-2.93c1.953-1.953 2.93-4.305 2.93-7.055s-.977-5.102-2.93-7.055C17.102 2.992 14.75 2.015 12 2.015zm-.639 2.107c.184.005.366.022.545.049 1.813.312 3.5 1.64 5.063 3.984.531.813.992 1.32 1.383 1.524.39.203.835.242 1.335.117.22.719.329 1.375.329 1.969a2.869 2.869 0 0 1-1.055.609c-.39.125-.828.14-1.313.047-.484-.094-1-.375-1.546-.844-.547-.469-1.07-1.125-1.57-1.969-2.313-3.78-4.72-5.062-7.22-3.843-.25.125-.382.18-.398.164-.016-.016.086-.102.305-.258 1.476-1.067 2.857-1.583 4.142-1.549zm-4.26 4.375c.61.015 1.29.244 2.04.69 1 .593 1.953 1.578 2.859 2.953.875 1.343 1.828 2.289 2.86 2.836 1.03.546 1.945.726 2.742.539.796-.188 1.43-.594 1.898-1.22.188-.25.234-.218.14.095-.156.468-.39 1-.703 1.593-1.125 1.72-2.796 2.422-5.015 2.11-1.719-.375-3.219-1.422-4.5-3.14-.719-.97-1.453-1.602-2.203-1.9-.75-.296-1.352-.304-1.805-.023-.453.281-.742.735-.867 1.36-.031.25-.094.25-.188 0A8.103 8.103 0 0 1 3.984 12v-.188c0-.75.22-1.421.657-2.015.5-.656 1.125-1.07 1.875-1.242a2.36 2.36 0 0 1 .586-.057z"/></svg>