<svg xmlns="http://www.w3.org/2000/svg" width="24" height="24"><path d="M12 12.14a9.3 9.3 0 0 0-2.86-2.95c-1-.6-1.87-.81-2.64-.64A3.28 3.28 0 0 0 4 11.81V12c0 .78.11 1.58.36 2.39.09.25.14.25.19 0 .12-.62.41-1.08.86-1.36.46-.28 1.06-.27 1.81.02.75.3 1.48.95 2.2 1.9a7.62 7.62 0 0 0 4.5 3.14c2.22.32 3.89-.39 5.02-2.09.31-.61.56-1.14.7-1.61.09-.31.05-.34-.14-.09a3.13 3.13 0 0 1-1.9 1.2c-.8.2-1.71 0-2.74-.5A8.27 8.27 0 0 1 12 12.14m4.97-3.98c-1.56-2.35-3.25-3.66-5.06-3.99-1.44-.22-3 .28-4.69 1.5-.22.16-.32.24-.31.26.02.02.15-.04.4-.16 2.5-1.22 4.91.06 7.22 3.84.5.84 1.02 1.5 1.57 1.97s1.06.75 1.55.84c.48.08.92.08 1.31-.04a2.8 2.8 0 0 0 1.04-.61c0-.6-.09-1.27-.31-1.97-.5.12-.95.08-1.34-.12-.39-.18-.85-.71-1.38-1.52M12 2c2.75 0 5.1 1 7.05 2.95A9.63 9.63 0 0 1 22 12c0 2.75-1 5.1-2.95 7.05A9.63 9.63 0 0 1 12 22c-2.75 0-5.1-1-7.05-2.95A9.63 9.63 0 0 1 2 12c0-2.75 1-5.1 2.95-7.05A9.63 9.63 0 0 1 12 2z"/></svg>