<svg xmlns="http://www.w3.org/2000/svg" width="24" height="24"><path d="M3.5 19c.83 0 1.5.7 1.5 1.5S4.33 22 3.5 22 2 21.3 2 20.5 2.67 19 3.5 19zm5-3c1.38 0 2.5 1.1 2.5 2.5S9.88 21 8.5 21 6 19.9 6 18.5 7.12 16 8.5 16zm6-1c-1.2 0-2.3-.5-3-1.4-.7.9-1.81 1.4-3 1.4-1.96 0-3.59-1.4-3.93-3.3C3.07 11.2 2 9.7 2 8c0-2.21 1.79-4 4-4 .26 0 .52.03.77.07C7.49 3.41 8.45 3 9.5 3c1.2 0 2.3.52 3 1.35.7-.83 1.8-1.35 3-1.35 2 0 3.6 1.41 3.9 3.26C20.9 6.84 22 8.3 22 10c0 2.2-1.8 4-4 4l-.8-.1c-.7.7-1.6 1.1-2.7 1.1z"/></svg>