<svg xmlns="http://www.w3.org/2000/svg" height="24" width="24"><path d="M18.6 6.62c3 0 5.4 2.4 5.4 5.38 0 3-2.4 5.4-5.4 5.4-1.4 0-2.8-.6-3.8-1.6L12 13.3l-2.83 2.5c-.97 1-2.33 1.6-3.77 1.6C2.42 17.4 0 15 0 12c0-2.96 2.42-5.38 5.4-5.38 1.44 0 2.8.56 3.82 1.58L12 10.7l2.8-2.55c1-.97 2.4-1.53 3.8-1.53zM7.8 14.4l2.7-2.4-2.66-2.35c-.68-.68-1.53-1.03-2.44-1.03-1.87 0-3.39 1.48-3.39 3.38s1.52 3.4 3.39 3.4c.91 0 1.76-.4 2.4-1zm8.4-4.79L13.5 12l2.7 2.4c.6.6 1.5 1 2.4 1 1.9 0 3.4-1.5 3.4-3.4s-1.5-3.38-3.4-3.38c-.9 0-1.8.35-2.4.99z"/></svg>