<svg xmlns="http://www.w3.org/2000/svg" width="24" height="24"><path d="M17.81 4.47a.46.46 0 0 1-.23-.06A11.45 11.45 0 0 0 12 3c-1.97 0-3.85.47-5.56 1.41a.5.5 0 0 1-.68-.2.5.5 0 0 1 .2-.68 12.8 12.8 0 0 1 12.08-.03c.25.15.34.45.21.69a.48.48 0 0 1-.44.28M3.5 9.72c-.1 0-.2-.03-.29-.09a.52.52 0 0 1-.12-.7c.99-1.4 2.25-2.5 3.75-3.27a11.54 11.54 0 0 1 10.31-.01c1.5.77 2.76 1.85 3.75 3.25a.5.5 0 0 1-.12.7.51.51 0 0 1-.7-.1 9.26 9.26 0 0 0-3.39-2.96 10.54 10.54 0 0 0-9.4.01c-1.36.7-2.5 1.7-3.4 2.95a.43.43 0 0 1-.39.22m6.25 12.07a.49.49 0 0 1-.35-.15A10.1 10.1 0 0 1 7.39 19a8.88 8.88 0 0 1-1.05-4.34A5.54 5.54 0 0 1 12 9.27a5.54 5.54 0 0 1 5.66 5.39.5.5 0 0 1-.5.5.5.5 0 0 1-.5-.5c0-2.42-2.09-4.39-4.66-4.39-2.57 0-4.66 1.97-4.66 4.39 0 1.44.32 2.77.93 3.84a9.35 9.35 0 0 0 1.85 2.43c.19.2.19.51 0 .71a.57.57 0 0 1-.37.15m7.17-1.85a5.32 5.32 0 0 1-5.48-5.28.5.5 0 0 1 .5-.5.5.5 0 0 1 .5.5 4.3 4.3 0 0 0 4.48 4.27c.24 0 .64-.03 1.04-.1a.5.5 0 0 1 .58.41.5.5 0 0 1-.41.58c-.57.11-1.07.12-1.21.12M14.91 22h-.13a8 8 0 0 1-3.72-2.12 7.28 7.28 0 0 1-2.17-5.22 3.02 3.02 0 0 1 3.08-2.94c1.7 0 3.08 1.32 3.08 2.94 0 1.07.95 1.94 2.08 1.94 1.15 0 2.08-.87 2.08-1.94 0-3.77-3.25-6.83-7.25-6.83a7.28 7.28 0 0 0-6.61 4.03 6.43 6.43 0 0 0-.59 2.8c0 .78.07 2.01.67 3.61.1.26-.03.55-.29.64a.5.5 0 0 1-.64-.29c-.5-1.31-.73-2.62-.73-3.96 0-1.2.23-2.29.68-3.24a8.3 8.3 0 0 1 7.51-4.6c4.54 0 8.25 3.51 8.25 7.83a3.02 3.02 0 0 1-3.08 2.94 3.02 3.02 0 0 1-3.08-2.94c0-1.07-.93-1.94-2.08-1.94s-2.08.87-2.08 1.94a6.3 6.3 0 0 0 1.87 4.51A6.7 6.7 0 0 0 15.03 21c.27.08.42.36.35.62a.49.49 0 0 1-.47.38z"/></svg>