<svg height="24" width="24" xmlns="http://www.w3.org/2000/svg"><path d="M12 2A10 10 0 0 0 2 12a10 10 0 0 0 10 10 10 10 0 0 0 10-10A10 10 0 0 0 12 2m0 2a8 8 0 0 1 8 8c0 2.4-1 4.5-2.7 6-1.4-1.3-3.3-2-5.3-2s-3.8.7-5.3 2A7.88 7.88 0 0 1 4 12a8 8 0 0 1 8-8m2 1.89c-.38.01-.74.26-.9.65l-1.29 3.23-.1.23c-.71.13-1.3.6-1.57 1.26a2 2 0 1 0 3.43-.5l.1-.26 1.29-3.21.01-.03c.2-.51-.05-1.09-.56-1.3a1.1 1.1 0 0 0-.41-.07M10 6a1 1 0 0 0-1 1 1 1 0 0 0 1 1 1 1 0 0 0 1-1 1 1 0 0 0-1-1M7 9a1 1 0 0 0-1 1 1 1 0 0 0 1 1 1 1 0 0 0 1-1 1 1 0 0 0-1-1m10 0a1 1 0 0 0-1 1 1 1 0 0 0 1 1 1 1 0 0 0 1-1 1 1 0 0 0-1-1z"/></svg>