<svg xmlns="http://www.w3.org/2000/svg" width="24" height="24"><path d="M15.881 5.084l1.342-1.548a1 1 0 0 1 1.428-.085l1.728 1.567a1 1 0 0 1 .022 1.461L18.824 8l1.348 1.336 1.083-1.115c1.5 4.256 2.005 7.676 1.518 10.258-.13.682-1.916-5.513-5.008-7.812-.362-.27-1.388.207-3.078 1.428l-2.786-2.759c1.145-1.644 1.617-2.619 1.417-2.925-2.127-3.257-8.442-4.607-7.74-4.824 2.288-.707 5.609-.256 9.962 1.353l-.853.962 1.194 1.183zM2.633 22.71l-1.34-1.34c-.39-.37-.39-1.02 0-1.41l9.582-9.347 2.652 2.578-9.484 9.519c-.39.39-1.04.39-1.41 0z"/></svg>