<svg xmlns="http://www.w3.org/2000/svg" width="24" height="24"><path d="M20.316 2.93L7.354 10.414l3 5.197 1.427.215.117-1.338 1.352.143.117-1.338 1.354.143.115-1.338 1.33.04.055-1.302 1.353.143.143-1.352 1.353.143.143-1.352 1.303.055.142-1.352 1.352.143.006-1.389-1.7-2.945zm-13.855 8l-2.904 1.675c-.97.384-1.774 1.385-1.526 2.473.45 1.146 1.19 2.163 1.772 3.248.63.943.974 2.29 2.21 2.608 1.222.298 2.193-.728 3.216-1.21l.732-2.732-3.5-6.062zm-.732 2.732c.827 1.447 1.666 2.888 2.498 4.332l-1.733 1-2.498-4.332 1.733-1z"/></svg>