<svg xmlns="http://www.w3.org/2000/svg" width="24" height="24"><path d="M15.235 14h4.231l-.646.411.242 1.089-1.064.335-.048 1.115-1.115.048-.335 1.064-1.089-.242-.599.941-.99-.515L13 19l-.822-.754-.99.515-.599-.941-1.089.242-.335-1.064-1.115-.048-.048-1.115-1.064-.335.242-1.089L6.534 14h4.231A2.99 2.99 0 0 0 13 15a2.99 2.99 0 0 0 2.235-1zM13 11a1 1 0 1 1 0 2 1 1 0 0 1 0-2zM7.862 6.248A6.982 6.982 0 0 1 13 4a7.006 7.006 0 0 1 6.929 6H22v2h-6a3.001 3.001 0 0 0-6 0H2v-2h.045a10.95 10.95 0 0 1 2.472-6l3.345 2.248zM6.728 7.89L5.057 6.767A8.94 8.94 0 0 0 4.055 10h2.016a6.95 6.95 0 0 1 .657-2.11z"/></svg>