<svg xmlns="http://www.w3.org/2000/svg" width="24" height="24"><path d="M12 18.1c-6.63 0-12-2.7-12-6.1 0-3.36 5.37-6.08 12-6.08 6.6 0 12 2.72 12 6.08 0 3.4-5.4 6.1-12 6.1zm-5.19-8c.54 0 .91.1 1.09.3s.22.6.13 1.1c-.1.5-.29.8-.58 1.1-.28.2-.71.3-1.29.3h-.87l.53-2.8h.99zm-3.5 5.6h1.44l.34-1.8h1.23c.54 0 .98 0 1.33-.1.35-.2.67-.3.96-.6.24-.2.43-.5.58-.7.15-.3.26-.6.32-.9.15-.8.04-1.4-.34-1.85-.39-.44-.99-.65-1.82-.65H4.59l-1.28 6.6zm7.29-8.35L9.28 13.9h1.42l.7-3.7h1.2c.3 0 .6 0 .7.1.1.2.1.4.1.7l-.6 2.9h1.4l.6-3c.2-.7.1-1.11-.2-1.39s-.9-.41-1.7-.41h-1.3l.4-1.75h-1.4zM18 10.1c.5 0 .9.1 1.1.3s.2.6.1 1.1-.3.8-.6 1.1c-.2.2-.7.3-1.2.3h-.9l.5-2.8h1zm-3.5 5.6h1.4l.4-1.8h1.2c.6 0 1 0 1.3-.1.4-.2.7-.3 1-.6.2-.2.4-.5.6-.7l.3-.9c.2-.8 0-1.4-.3-1.85-.4-.44-1-.65-1.9-.65h-2.7l-1.3 6.6z"/></svg>