<svg xmlns="http://www.w3.org/2000/svg" width="24" height="24"><path d="M6.997 17h-3c-1.617 0-3.04-1.257-3.24-2.86l-.498-2.992c-.107-.845.132-1.642.649-2.227A2.78 2.78 0 0 1 2.997 8h6c.835 0 1.585.348 2.059.955.119.152.217.318.296.492.425-.09.866-.09 1.292 0 .078-.175.176-.34.295-.492.474-.607 1.224-.955 2.058-.955h6c.812 0 1.572.336 2.09.921a2.78 2.78 0 0 1 .654 2.188l-.51 3.071c-.195 1.564-1.618 2.82-3.233 2.82h-3c-1.562 0-3.079-1.186-3.456-2.699l-.899-2.714a1.11 1.11 0 0 0-1.294.001l-.917 2.785C10.074 15.815 8.556 17 6.997 17z"/></svg>