<svg xmlns="http://www.w3.org/2000/svg" width="24" height="24"><path d="M10.1 10.9c0-.4.1-.7.3-.91.1-.25.3-.46.6-.62.2-.15.5-.22.9-.23.2.01.4.05.6.13.2.09.4.21.5.36.2.15.3.33.4.57.1.2.1.4.1.6h1.8c0-.5-.1-.9-.3-1.29s-.4-.73-.7-1.01-.6-.5-1.1-.66c-.4-.16-.8-.23-1.4-.23s-1.2.11-1.6.34c-.53.23-.93.53-1.25.92s-.56.84-.71 1.33c-.15.6-.24 1.1-.24 1.7v.2c0 .6.08 1.2.23 1.7s.39 1 .71 1.3c.32.4.72.7 1.16.9.5.3 1.1.4 1.7.4.5 0 1-.1 1.4-.2.4-.2.7-.4 1-.7.4-.3.6-.6.8-.9.2-.4.3-.8.3-1.2h-1.8c0 .2-.1.4-.2.6s-.2.3-.3.5c-.2.1-.3.2-.5.3-.2 0-.4.1-.6.1-.4 0-.7-.1-.9-.3-.3-.1-.5-.3-.6-.6-.2-.2-.3-.5-.3-.9-.1-.3-.1-.6-.1-1v-.2c0-.4 0-.7.1-1zM12 2C6.48 2 2 6.48 2 12c0 5.5 4.48 10 10 10 5.5 0 10-4.5 10-10 0-5.52-4.5-10-10-10zm0 18c-4.41 0-8-3.6-8-8 0-4.41 3.59-8 8-8 4.4 0 8 3.59 8 8 0 4.4-3.6 8-8 8z"/></svg>