<svg height="24" width="24" xmlns="http://www.w3.org/2000/svg"><path d="M6 2a2 2 0 0 0-2 2v16a2 2 0 0 0 2 2h12a2 2 0 0 0 2-2V4a2 2 0 0 0-2-2H6m1 2a1 1 0 0 1 1 1 1 1 0 0 1-1 1 1 1 0 0 1-1-1 1 1 0 0 1 1-1m3 0a1 1 0 0 1 1 1 1 1 0 0 1-1 1 1 1 0 0 1-1-1 1 1 0 0 1 1-1m2 4a6 6 0 0 1 6 6 6 6 0 0 1-6 6 6 6 0 0 1-6-6 6 6 0 0 1 6-6m-2.68 2c-.41.89-.82 1.78-.82 2.67 0 .88.82 1.78.82 2.66 0 .89-.82 1.78-.82 2.67h1.23c0-.89.83-1.78.83-2.67 0-.88-.83-1.78-.83-2.66 0-.89.42-1.78.83-2.67H9.32m2.47 0c-.41.89-.82 1.78-.82 2.67 0 .88.82 1.78.82 2.66 0 .89-.82 1.78-.82 2.67h1.24c0-.89.82-1.78.82-2.67 0-.88-.82-1.78-.82-2.66 0-.89.41-1.78.82-2.67h-1.24m2.48 0a6.57 6.57 0 0 0-.83 2.67c0 .88.83 1.78.83 2.66 0 .89-.83 1.78-.83 2.67h1.24c0-.89.82-1.78.82-2.67 0-.88-.82-1.78-.82-2.66 0-.89.41-1.78.82-2.67h-1.23z"/></svg>