<svg height="24" width="24" xmlns="http://www.w3.org/2000/svg"><path d="M6 2h12a2 2 0 0 1 2 2v16a2 2 0 0 1-2 2H6a2 2 0 0 1-2-2V4a2 2 0 0 1 2-2m1 2a1 1 0 0 0-1 1 1 1 0 0 0 1 1 1 1 0 0 0 1-1 1 1 0 0 0-1-1m3 0a1 1 0 0 0-1 1 1 1 0 0 0 1 1 1 1 0 0 0 1-1 1 1 0 0 0-1-1m2 4a6 6 0 0 0-6 6 6 6 0 0 0 6 6 6 6 0 0 0 6-6 6 6 0 0 0-6-6m-3.89 2.5H10c-.24 1.38 0 2.17.58 2.79a4.53 4.53 0 0 1 1.31 4.21H10c.24-1.38 0-2.17-.58-2.79a4.56 4.56 0 0 1-1.31-4.21m4 0H14c-.24 1.38 0 2.17.58 2.79a4.53 4.53 0 0 1 1.31 4.21H14c.24-1.38 0-2.17-.58-2.79a4.56 4.56 0 0 1-1.31-4.21z"/></svg>