<svg height="24" width="24" xmlns="http://www.w3.org/2000/svg"><path d="M6.5 8.11A1.6 1.6 0 0 1 4.89 6.5 1.61 1.61 0 0 1 6.5 4.89c.89 0 1.61.72 1.61 1.61A1.61 1.61 0 0 1 6.5 8.11M6.5 2C4 2 2 4 2 6.5c0 3.37 4.5 8.36 4.5 8.36S11 9.87 11 6.5C11 4 9 2 6.5 2m11 6.11a1.61 1.61 0 0 1-1.61-1.61 1.6 1.6 0 1 1 3.22 0 1.61 1.61 0 0 1-1.61 1.61m0-6.11C15 2 13 4 13 6.5c0 3.37 4.5 8.36 4.5 8.36S22 9.87 22 6.5C22 4 20 2 17.5 2m0 14c-1.27 0-2.4.8-2.82 2H9.32a3 3 0 1 0 0 2h5.37a3 3 0 1 0 2.81-4m0 4.5A1.5 1.5 0 0 1 16 19a1.5 1.5 0 0 1 1.5-1.5A1.5 1.5 0 0 1 19 19a1.5 1.5 0 0 1-1.5 1.5z"/></svg>