<svg xmlns="http://www.w3.org/2000/svg" width="24" height="24"><path d="M21.33 12.91a4.53 4.53 0 0 1-1.89 3.95l.77 1.49a1.75 1.75 0 0 1-1 2.45l-.79.25a1.69 1.69 0 0 1-1.86-.55L14.44 18A5.31 5.31 0 0 1 12 16.9c-.5.15-1 .23-1.5.23-.88 0-1.76-.27-2.5-.79a5.86 5.86 0 0 1-3.92-.23 4.1 4.1 0 0 1-2.43-3.61c-.08-.72.04-1.45.35-2.11a3.46 3.46 0 0 1-.07-2.33 4.48 4.48 0 0 1 1.94-2.24 3.97 3.97 0 0 1 4-2.7 4.6 4.6 0 0 1 5.83-.37c.42-.11.86-.17 1.3-.17a4.33 4.33 0 0 1 3.5 1.64 4.8 4.8 0 0 1 3.58 4.47 5.26 5.26 0 0 1-.86 3.13c.07.36.11.72.11 1.09m-5-1.41c.57.07 1.02.5 1.02 1.07a1 1 0 0 1-1 1h-.63c-.32.9-.88 1.69-1.62 2.29.25.09.51.14.77.21 5.13-.07 4.53-3.2 4.53-3.25a2.6 2.6 0 0 0-2.69-2.49 1 1 0 0 1-1-1 1 1 0 0 1 1-1c1.23.03 2.41.49 3.33 1.3.05-.29.08-.59.08-.89-.06-1.24-.62-2.32-2.87-2.53-1.25-2.96-4.4-1.32-4.4-.4-.03.23.21.72.25.75a1 1 0 0 1 1 1 1 1 0 0 1-1 1A2.34 2.34 0 0 1 11.67 8c-.48.31-1.03.5-1.6.56A.96.96 0 0 1 9 7.66a.97.97 0 0 1 .88-1.1c.16-.02.94-.14.94-.77 0-.66.25-1.29.68-1.79-.92-.25-1.91.08-2.91 1.29C6.75 5 6 5.25 5.45 7.2 4.5 7.67 4 8 3.78 9A5.89 5.89 0 0 1 7 9.25a1 1 0 0 1-.7 1.88 3.05 3.05 0 0 0-2.3-.06c-.32.27-.32.83-.32 1.27 0 .74.37 1.43 1 1.83.53.27 1.12.41 1.71.4a6.03 6.03 0 0 1-.39-.81 1.04 1.04 0 0 1 1.96-.68 3.1 3.1 0 0 0 2.62 2.05A3.75 3.75 0 0 0 13.77 13c.23-1.38 1.34-1.5 2.56-1.5m2 7.47l-.62-1.3-.71.16 1 1.25.33-.11m-4.65-8.61a1 1 0 0 0-.91-1.03c-.71-.04-1.4.2-1.93.67a2.97 2.97 0 0 0-.84 2.19 1 1 0 0 0 1 1c.57 0 1-.45 1-1 0-.27.07-.54.23-.76.12-.1.27-.15.43-.15a.94.94 0 0 0 1.02-.92z"/></svg>