<svg xmlns="http://www.w3.org/2000/svg" width="24" height="24"><path d="M7.5 2A5.5 5.5 0 0 0 2 7.5V8h2v-.5A3.5 3.5 0 0 1 7.5 4c1.5 0 2.76.93 3.26 2.24A3.5 3.5 0 0 0 6.34 8l1.74 1c.21-.58.77-1 1.42-1A1.5 1.5 0 0 1 11 9.5V11h2V9.5A1.5 1.5 0 0 1 14.5 8c.66 0 1.21.42 1.42 1l1.74-1a3.5 3.5 0 0 0-4.42-1.76A3.48 3.48 0 0 1 16.5 4 3.5 3.5 0 0 1 20 7.5V8h2v-.5A5.5 5.5 0 0 0 16.5 2c-1.86 0-3.5.93-4.5 2.34A5.51 5.51 0 0 0 7.5 2M6 12v2h1.42A4.98 4.98 0 0 0 10 16.57V19H2l1.41 2.11c.37.56.99.89 1.66.89h13.86c.67 0 1.29-.33 1.66-.89L22 19h-8v-2.43A4.98 4.98 0 0 0 16.58 14H18v-2H6z"/></svg>